<?xml version="1.0" encoding="UTF-8" standalone="no"?>
<svg
   xmlns:dc="http://purl.org/dc/elements/1.1/"
   xmlns:cc="http://creativecommons.org/ns#"
   xmlns:rdf="http://www.w3.org/1999/02/22-rdf-syntax-ns#"
   xmlns:svg="http://www.w3.org/2000/svg"
   xmlns="http://www.w3.org/2000/svg"
   xmlns:sodipodi="http://sodipodi.sourceforge.net/DTD/sodipodi-0.dtd"
   xmlns:inkscape="http://www.inkscape.org/namespaces/inkscape"
   width="172.65463mm"
   height="169.5459mm"
   viewBox="0 0 172.65465 169.54592"
   version="1.1"
   id="svg8"
   sodipodi:docname="logo-codever-only-thicker-inverted-full.svg"
   inkscape:version="1.0.2 (e86c8708, 2021-01-15)">
  <defs
     id="defs2" />
  <sodipodi:namedview
     id="base"
     pagecolor="#ffffff"
     bordercolor="#666666"
     borderopacity="1.0"
     inkscape:pageopacity="0.0"
     inkscape:pageshadow="2"
     inkscape:zoom="1.0622952"
     inkscape:cx="173.20853"
     inkscape:cy="313.13938"
     inkscape:document-units="mm"
     inkscape:current-layer="layer6"
     inkscape:document-rotation="0"
     showgrid="false"
     inkscape:window-width="2560"
     inkscape:window-height="1395"
     inkscape:window-x="2528"
     inkscape:window-y="23"
     inkscape:window-maximized="0"
     inkscape:snap-text-baseline="true"
     inkscape:snap-center="false" />
  <metadata
     id="metadata5">
    <rdf:RDF>
      <cc:Work
         rdf:about="">
        <dc:format>image/svg+xml</dc:format>
        <dc:type
           rdf:resource="http://purl.org/dc/dcmitype/StillImage" />
        <dc:title />
      </cc:Work>
    </rdf:RDF>
  </metadata>
  <g
     inkscape:groupmode="layer"
     id="layer4"
     inkscape:label="c-letter"
     style="display:inline"
     transform="translate(-2.1372352,-0.9914564)">
    <path
       id="text391"
       style="font-style:normal;font-variant:normal;font-weight:normal;font-stretch:normal;font-size:225.50700000000000500px;line-height:1.25;font-family:'Heiti SC';-inkscape-font-specification:'Heiti SC, Normal';font-variant-ligatures:normal;font-variant-caps:normal;font-variant-numeric:normal;font-variant-east-asian:normal;stroke-width:1.17452;fill:#f2f2f2"
       sodipodi:type="inkscape:offset"
       inkscape:radius="-2.1356575"
       inkscape:original="M 68.289062 -1.5195312 C 47.993432 -1.5195312 31.456465 4.9439787 18.677734 17.873047 C 5.8990042 30.651777 -0.49023438 46.062955 -0.49023438 64.103516 C -0.49023437 82.144076 5.8247328 97.402805 18.453125 109.88086 C 31.231855 122.35891 47.092568 128.59766 66.035156 128.59766 C 78.212534 128.59766 89.488006 126.1174 99.861328 121.15625 C 110.38499 116.1951 118.87922 108.97911 125.34375 99.507812 L 110.91016 89.585938 C 99.183792 104.01839 84.751814 111.23438 67.613281 111.23438 C 53.331171 111.23437 41.529941 106.49864 32.208984 97.027344 C 22.888028 87.55605 18.226562 76.204354 18.226562 62.974609 C 18.226562 49.744865 22.9623 38.696114 32.433594 29.826172 C 41.904888 20.805892 53.631847 16.294922 67.613281 16.294922 C 85.353166 16.294922 99.710873 23.43664 110.68555 37.71875 L 125.34375 28.472656 C 119.63091 19.001362 111.66244 11.634877 101.43945 6.3730469 C 91.366807 1.1112168 80.316103 -1.5195312 68.289062 -1.5195312 z "
       d="M 68.289062,0.61523438 C 48.446858,0.61523438 32.578595,6.848009 20.197266,19.375 a 2.1358711,2.1358711 0 0 1 -0.0098,0.0078 C 7.7641621,31.806151 1.6445312,46.567197 1.6445312,64.103516 c 10e-8,17.542179 6.0481351,32.141381 18.3105468,44.257814 12.399664,12.10358 27.610916,18.10156 46.080078,18.10156 11.887388,0 22.824456,-2.41163 32.904297,-7.23242 a 2.1358711,2.1358711 0 0 1 0.01172,-0.006 c 9.539318,-4.4971 17.230218,-10.93904 23.314448,-19.242188 L 111.25,92.410156 C 99.416161,106.22106 84.724339,113.36914 67.613281,113.36914 52.859071,113.36913 40.390943,108.38534 30.6875,98.525391 21.017837,88.699765 16.091797,76.706017 16.091797,62.974609 c 0,-13.737923 5.025062,-25.471582 14.880859,-34.703125 0.0011,-9.92e-4 8.94e-4,-0.0029 0.002,-0.0039 9.849139,-9.373797 22.204379,-14.107422 36.638672,-14.107422 17.654789,0 32.323044,7.072454 43.494139,20.767578 L 122.3125,27.859375 C 116.9022,19.583334 109.70911,13.030568 100.46289,8.2714844 a 2.1358711,2.1358711 0 0 1 -0.0117,-0.00586 C 90.687785,3.1653467 80.004673,0.61523438 68.289062,0.61523438 Z"
       transform="matrix(1.4308241,0,0,1.3472313,-0.21579972,0.16259339)" />
  </g>
  <g
     inkscape:groupmode="layer"
     id="layer5"
     inkscape:label="o-letter"
     style="display:inline"
     transform="translate(-2.1372352,-0.9914564)">
    <g
       aria-label="o"
       transform="matrix(1.3873599,0,0,1.2984208,3.4199181,1.7555229)"
       id="text395"
       style="font-style:normal;font-variant:normal;font-weight:300;font-stretch:normal;font-size:157.46700000000001296px;line-height:1.25;font-family:'Heiti SC';-inkscape-font-specification:'Heiti SC, Light';font-variant-ligatures:normal;font-variant-caps:normal;font-variant-numeric:normal;font-variant-east-asian:normal;stroke-width:0.984173;fill:#f2f2f2">
      <path
         id="path509"
         style="font-style:normal;font-variant:normal;font-weight:300;font-stretch:normal;font-size:157.46700000000001296px;font-family:'Heiti SC';-inkscape-font-specification:'Heiti SC, Light';font-variant-ligatures:normal;font-variant-caps:normal;font-variant-numeric:normal;font-variant-east-asian:normal;stroke-width:0.984173;fill:#f2f2f2"
         sodipodi:type="inkscape:offset"
         inkscape:radius="0.11935527"
         inkscape:original="M 66.125 20.367188 C 54.05253 20.367187 43.764936 24.724326 35.261719 33.4375 C 26.863479 42.150674 22.664062 52.649215 22.664062 64.931641 C 22.664062 77.004111 26.863479 87.396202 35.261719 96.109375 C 43.659958 104.71757 54.000777 109.02148 66.283203 109.02148 C 78.565628 109.02148 88.853222 104.71757 97.146484 96.109375 C 105.54473 87.396202 109.74414 76.950885 109.74414 64.773438 C 109.74414 52.59599 105.4915 42.150674 96.988281 33.4375 C 88.590041 24.724326 78.302447 20.367188 66.125 20.367188 z M 66.125 30.917969 C 75.048129 30.917969 82.711576 34.330727 89.115234 41.154297 C 95.62387 47.872889 98.878906 55.849827 98.878906 65.087891 C 98.878906 74.430933 95.677096 82.409824 89.273438 89.023438 C 82.974758 95.532073 75.20486 98.787109 65.966797 98.787109 C 56.833711 98.787109 49.170264 95.532074 42.976562 89.023438 C 36.782861 82.514802 33.6875 74.589136 33.6875 65.246094 C 33.6875 55.903052 36.889311 47.872889 43.292969 41.154297 C 49.696626 34.330727 57.306848 30.917969 66.125 30.917969 z "
         d="m 66.125,20.248047 c -12.101188,-1e-6 -22.426285,4.372091 -30.949219,13.105469 a 0.1193672,0.1193672 0 0 0 0,0.002 c -8.417688,8.733351 -12.630859,19.26654 -12.630859,31.576172 0,12.100148 4.213508,22.526765 12.630859,31.259765 a 0.1193672,0.1193672 0 0 0 0,0.002 c 8.418552,8.629011 18.797114,12.947261 31.107422,12.947261 12.310307,0 22.635531,-4.31982 30.949219,-12.949214 8.417528,-8.733175 12.630858,-19.213082 12.630858,-31.417968 0,-12.204756 -4.2671,-22.685114 -12.789061,-31.417969 C 88.655978,24.621544 78.330918,20.248047 66.125,20.248047 Z m 0,10.789062 c 8.892696,0 16.517612,3.395817 22.902344,10.199219 a 0.1193672,0.1193672 0 0 0 0.002,0.002 c 6.489623,6.698966 9.730469,14.639582 9.730469,23.84961 0,9.315773 -3.188148,17.258129 -9.572266,23.851562 a 0.1193672,0.1193672 0 0 0 0,0.002 c -6.278398,6.487677 -14.010677,9.726563 -23.220703,9.726563 -9.104727,0 -16.730789,-3.239147 -22.904297,-9.726563 -6.174034,-6.487969 -9.255859,-14.378632 -9.255859,-23.695312 0,-9.315774 3.187668,-17.311173 9.572265,-24.009766 a 0.1193672,0.1193672 0 0 0 0.002,0 C 49.765815,34.432685 57.337643,31.037109 66.125,31.037109 Z" />
    </g>
  </g>
  <g
     inkscape:groupmode="layer"
     id="layer6"
     inkscape:label="d-letter"
     style="display:inline"
     transform="translate(-2.1372352,-0.9914564)">
    <path
       id="text399"
       style="font-style:normal;font-variant:normal;font-weight:normal;font-stretch:normal;font-size:101.71200000000000330px;line-height:1.25;font-family:'Heiti SC';-inkscape-font-specification:'Heiti SC, Normal';font-variant-ligatures:normal;font-variant-caps:normal;font-variant-numeric:normal;font-variant-east-asian:normal;fill:#d4aa00;stroke-width:1.0595"
       sodipodi:type="inkscape:offset"
       inkscape:radius="0.84626985"
       inkscape:original="M 86.568359 17.076172 L 86.568359 46.369141 C 81.075911 39.791765 74.260007 36.501953 66.123047 36.501953 C 58.053895 36.501953 51.206189 39.384758 45.578125 45.148438 C 39.950061 50.844309 37.134766 57.72577 37.134766 65.794922 C 37.134766 73.864074 39.916307 80.781242 45.476562 86.544922 C 51.036818 92.308602 57.749507 95.189453 65.615234 95.189453 C 73.54877 95.189453 80.533447 91.86784 86.568359 85.222656 L 86.568359 93.359375 L 94.806641 93.359375 L 94.806641 17.076172 L 86.568359 17.076172 z M 66.326172 44.638672 C 72.293276 44.638672 77.211116 46.707462 81.076172 50.84375 C 85.009036 54.91223 86.974609 60.032597 86.974609 66.203125 C 86.974609 72.305845 84.872065 77.35675 80.667969 81.357422 C 76.463873 85.358094 71.683004 87.359375 66.326172 87.359375 C 60.6303 87.359375 55.748167 85.223076 51.679688 80.951172 C 47.611208 76.679268 45.578125 71.693919 45.578125 65.998047 C 45.578125 60.234367 47.543699 55.250971 51.476562 51.046875 C 55.477234 46.774971 60.426876 44.638672 66.326172 44.638672 z "
       d="m 86.568359,16.230469 a 0.84635447,0.84635447 0 0 0 -0.845703,0.845703 v 27.27539 C 80.341849,38.681225 73.791934,35.65625 66.123047,35.65625 c -8.268816,0 -15.377954,2.990919 -21.146485,8.896484 -6.63e-4,6.72e-4 -0.0013,0.0013 -0.002,0.002 -6.61e-4,6.77e-4 -0.0013,0.0013 -0.002,0.002 -5.765777,5.837167 -8.683594,12.974189 -8.683594,21.238281 0,8.263632 2.880886,15.432215 8.578126,21.33789 5.698719,5.90721 12.675686,8.902344 20.748046,8.902344 7.545935,0 14.265601,-3.085843 20.107422,-8.880859 v 6.205078 a 0.84635447,0.84635447 0 0 0 0.845703,0.845703 h 8.238282 a 0.84635447,0.84635447 0 0 0 0.845703,-0.845703 V 17.076172 A 0.84635447,0.84635447 0 0 0 94.806641,16.230469 Z M 66.326172,45.484375 c 5.771503,0 10.41419,1.960011 14.130859,5.9375 a 0.84635447,0.84635447 0 0 0 0.0098,0.0098 c 3.784187,3.914676 5.662109,8.780671 5.662109,14.771484 0,5.908346 -1.99643,10.688419 -6.044922,14.541016 -4.074093,3.87696 -8.611754,5.769531 -13.757812,5.769531 -5.48427,0 -10.100726,-2.017382 -14.033203,-6.146484 -3.938816,-4.135757 -5.869141,-8.874647 -5.869141,-14.369141 0,-5.571279 1.868886,-10.30987 5.669922,-14.373047 3.858842,-4.120459 8.537431,-6.140625 14.232422,-6.140625 z"
       transform="matrix(1.2112069,0,0,1.1678369,15.955985,8.8535539)" />
  </g>
  <g
     inkscape:groupmode="layer"
     id="layer7"
     inkscape:label="e-letter"
     style="display:inline"
     transform="translate(-2.1372352,-0.9914564)">
    <path
       id="text403"
       style="font-style:normal;font-variant:normal;font-weight:normal;font-stretch:normal;font-size:52.91669999999999874px;line-height:1.25;font-family:'Heiti SC';-inkscape-font-specification:'Heiti SC, Normal';font-variant-ligatures:normal;font-variant-caps:normal;font-variant-numeric:normal;font-variant-east-asian:normal;stroke-width:1.28323;fill:#f2f2f2"
       sodipodi:type="inkscape:offset"
       inkscape:radius="0.7683714"
       inkscape:original="M 67.416016 48.744141 C 63.217958 48.744141 59.689533 50.243575 56.832031 53.242188 C 54.009807 56.2408 52.599609 59.839051 52.599609 64.037109 C 52.599609 68.235167 54.009807 71.835371 56.832031 74.833984 C 59.654255 77.797319 63.235049 79.277344 67.574219 79.277344 C 70.713943 79.277344 73.412143 78.555765 75.669922 77.109375 C 77.927701 75.627707 79.886865 73.350419 81.544922 70.28125 L 77.839844 68.376953 C 75.405676 72.927789 71.879204 75.203125 67.257812 75.203125 C 64.541422 75.203125 62.194307 74.250704 60.21875 72.345703 C 58.278471 70.405424 57.221311 67.84883 57.044922 64.673828 L 82.337891 64.673828 C 82.232057 59.734936 80.767536 55.853474 77.945312 53.03125 C 75.123089 50.173748 71.614074 48.744141 67.416016 48.744141 z M 67.416016 52.978516 C 69.850184 52.978516 72.00137 53.667135 73.871094 55.042969 C 75.740817 56.418803 76.941536 58.341101 77.470703 60.810547 L 57.574219 60.810547 C 59.196998 55.589433 62.477124 52.978516 67.416016 52.978516 z "
       d="m 67.416016,47.976562 c -4.38102,0 -8.15345,1.601638 -11.140625,4.736329 a 0.76844824,0.76844824 0 0 0 -0.002,0.002 c -2.944928,3.128984 -4.441407,6.952135 -4.441407,11.322265 0,4.370131 1.496365,8.195113 4.441407,11.324219 a 0.76844824,0.76844824 0 0 0 0.002,0.002 c 2.957956,3.105854 6.784938,4.681641 11.298828,4.681641 3.25745,0 6.115592,-0.755295 8.509765,-2.289063 a 0.76844824,0.76844824 0 0 0 0.0078,-0.0039 c 2.389248,-1.567944 4.426089,-3.953446 6.128906,-7.105469 a 0.76844824,0.76844824 0 0 0 -0.324219,-1.048828 l -3.705078,-1.904297 a 0.76844824,0.76844824 0 0 0 -1.029297,0.320313 c -2.338835,4.372606 -5.535109,6.421875 -9.904297,6.421875 -2.5343,0 -4.652507,-0.859481 -6.5,-2.638672 -1.616919,-1.619213 -2.473776,-3.755689 -2.771484,-6.355469 h 24.351563 a 0.76844824,0.76844824 0 0 0 0.767578,-0.783203 C 82.996614,59.578367 81.46694,55.469198 78.492188,52.492188 l -0.002,-0.002 c -2.955639,-2.99157 -6.702697,-4.513671 -11.074218,-4.513672 z m 0,5.769532 c 2.289254,0 4.258301,0.634389 6,1.916015 1.458959,1.073574 2.365476,2.566811 2.939453,4.38086 H 58.751953 c 0.755088,-1.940685 1.714529,-3.499929 2.978516,-4.50586 1.493248,-1.188386 3.351499,-1.791015 5.685547,-1.791015 z"
       transform="matrix(1.1780579,0,0,1.0697909,16.873111,17.910859)" />
  </g>
  <g
     inkscape:groupmode="layer"
     id="layer3"
     inkscape:label="bookmark"
     style="display:inline"
     transform="translate(-2.1372352,-0.9914564)">
    <path
       fill="currentColor"
       d="M 117.17213,127.6473 V 12.382211 c 0,-6.5855168 1.11735,-11.92397401 2.49573,-11.92397401 h 14.97445 c 1.37836,0 2.49572,5.33845721 2.49572,11.92397401 V 127.6473 l -9.98295,-10.05402 z"
       id="path405"
       style="fill:#d4aa00;stroke-width:0.11365"
       sodipodi:nodetypes="cssssccc" />
  </g>
</svg>
